<svg width="48" height="48" viewBox="0 0 48 48" fill="none" xmlns="http://www.w3.org/2000/svg">
<path d="M31.2542 20.2034C31.2542 20.2034 30.3729 16.7458 33.8305 15.7966C37.2881 14.9153 36.4068 11.3898 36.4068 11.3898M31.2542 36.5424C31.2542 36.5424 30.3729 33.0847 33.8305 32.1356C37.2881 31.2542 36.4068 27.7288 36.4068 27.7288M11.4576 20.2034C11.4576 20.2034 10.5763 16.7458 14.0339 15.7966C17.4915 14.9153 16.6102 11.3898 16.6102 11.3898M11.4576 36.5424C11.4576 36.5424 10.5763 33.0847 14.0339 32.1356C17.4915 31.2542 16.6102 27.7288 16.6102 27.7288M24 44H44V4H24M24 44V4M24 44H4V4H24" stroke="black" stroke-miterlimit="10" stroke-linecap="round" stroke-linejoin="round"/>
</svg>
