<svg width="48" height="48" viewBox="0 0 48 48" fill="none" xmlns="http://www.w3.org/2000/svg">
<path d="M16.327 4V11.5254M16.327 36.4746V44M31.3101 36.4746V44M31.3101 4V11.5254M18.6999 44H28.666M18.6999 4H28.666M23.988 36.4746V44M23.988 4V11.5254M35.1067 13.8305C35.1067 13.8305 33.2084 15.7288 31.3779 13.8305C29.4796 11.9322 27.6491 13.8305 27.6491 13.8305M27.5813 13.8305C27.5813 13.8305 25.683 15.7288 23.8525 13.8305C21.9542 11.9322 20.1236 13.8305 20.1236 13.8305C20.1236 13.8305 18.2253 15.7288 16.3948 13.8305C14.4965 11.9322 12.666 13.8305 12.666 13.8305M35.1067 20.5424C35.1067 20.5424 33.2084 22.4407 31.3779 20.5424C29.4796 18.6441 27.6491 20.5424 27.6491 20.5424M27.5813 20.5424C27.5813 20.5424 25.683 22.4407 23.8525 20.5424C21.9542 18.6441 20.1236 20.5424 20.1236 20.5424C20.1236 20.5424 18.2253 22.4407 16.3948 20.5424C14.4965 18.6441 12.666 20.5424 12.666 20.5424M35.1067 27.2542C35.1067 27.2542 33.2084 29.1525 31.3779 27.2542C29.4796 25.3559 27.6491 27.2542 27.6491 27.2542M27.5813 27.2542C27.5813 27.2542 25.683 29.1525 23.8525 27.2542C21.9542 25.3559 20.1236 27.2542 20.1236 27.2542C20.1236 27.2542 18.2253 29.1525 16.3948 27.2542C14.4965 25.3559 12.666 27.2542 12.666 27.2542M35.1067 33.9661C35.1067 33.9661 33.2084 35.8644 31.3779 33.9661C29.4796 32.0678 27.6491 33.9661 27.6491 33.9661M27.5813 33.9661C27.5813 33.9661 25.683 35.8644 23.8525 33.9661C21.9542 32.0678 20.1236 33.9661 20.1236 33.9661C20.1236 33.9661 18.2253 35.8644 16.3948 33.9661C14.5643 32.0678 12.666 33.9661 12.666 33.9661" stroke="black" stroke-miterlimit="10" stroke-linecap="round" stroke-linejoin="round"/>
</svg>
