<svg width="48" height="48" viewBox="0 0 48 48" fill="none" xmlns="http://www.w3.org/2000/svg">
<path d="M1.33398 36.8665H46.534M19.934 10.7332C19.934 10.7332 22.134 12.1998 25.0007 10.7332M17.4007 13.6665C17.4007 13.6665 21.734 16.5998 27.6006 13.6665M14.8673 16.5332C14.8673 16.5332 21.4007 20.8665 30.134 16.5332M12.334 19.4665C12.334 19.4665 21.0673 25.2665 32.6673 19.4665M9.80066 22.3331C9.80066 22.3331 20.6673 29.5998 35.2007 22.3331M45.8673 31.2665C45.8673 31.2665 43.6673 34.0665 40.8673 31.2665C38.0007 28.4665 35.2673 31.2665 35.2673 31.2665C35.2673 31.2665 32.4006 34.0665 29.6006 31.2665C26.734 28.4665 23.934 31.2665 23.934 31.2665C23.934 31.2665 21.0673 34.0665 18.2673 31.2665C15.4006 28.4665 12.6673 31.2665 12.6673 31.2665C12.6673 31.2665 9.80065 34.0665 7.00065 31.2665C4.13398 28.4665 2.00065 31.2665 2.00065 31.2665" stroke="black" stroke-miterlimit="10" stroke-linecap="round" stroke-linejoin="round"/>
<path d="M46.1331 10.6667L41.0664 15.7334" stroke="black" stroke-miterlimit="10" stroke-linecap="round" stroke-linejoin="round"/>
<path d="M46.1331 15.7334L41.0664 10.6667" stroke="black" stroke-miterlimit="10" stroke-linecap="round" stroke-linejoin="round"/>
</svg>
