<svg width="24" height="24" viewBox="0 0 24 24" fill="none" xmlns="http://www.w3.org/2000/svg">
<path fill-rule="evenodd" clip-rule="evenodd" d="M18 8C18 9.10457 17.1046 10 16 10C14.8954 10 14 9.10457 14 8C14 6.89543 14.8954 6 16 6C17.1046 6 18 6.89543 18 8ZM19 8C19 9.65685 17.6569 11 16 11C15.0154 11 14.1415 10.5257 13.5945 9.79301C13.0001 10.1345 12.1704 10.6346 11.3857 11.1141C10.8244 11.4572 10.2941 11.7847 9.90409 12.0265C9.88569 12.0379 9.8676 12.0491 9.84984 12.0602C9.94728 12.3558 10 12.6717 10 13C10 13.3361 9.94474 13.6593 9.8428 13.9609L13.4736 16.3815C14.0071 15.5505 14.9392 15 16 15C17.6569 15 19 16.3431 19 18C19 19.6569 17.6569 21 16 21C14.3431 21 13 19.6569 13 18C13 17.7659 13.0268 17.538 13.0776 17.3193L9.36588 14.8448C8.81683 15.5479 7.96121 16 7 16C5.34315 16 4 14.6569 4 13C4 11.3431 5.34315 10 7 10C7.96994 10 8.83237 10.4603 9.38076 11.1744C9.77163 10.932 10.3023 10.6043 10.8643 10.2609C11.6501 9.78062 12.5132 9.25981 13.138 8.90219C13.0484 8.61744 13 8.31437 13 8C13 6.34315 14.3431 5 16 5C17.6569 5 19 6.34315 19 8ZM9 13C9 14.1046 8.10457 15 7 15C5.89543 15 5 14.1046 5 13C5 11.8954 5.89543 11 7 11C8.10457 11 9 11.8954 9 13ZM16 20C17.1046 20 18 19.1046 18 18C18 16.8954 17.1046 16 16 16C14.8954 16 14 16.8954 14 18C14 19.1046 14.8954 20 16 20Z" fill="black"/>
</svg>
