<svg width="66" height="40" viewBox="0 0 66 40" fill="none" xmlns="http://www.w3.org/2000/svg">
<g clip-path="url(#clip0)">
<path d="M65.4451 21.8967H60.4541V26.6363H65.4451V21.8967Z" fill="black"/>
<path d="M61.3441 34.44L63.6237 35.7818C64.3512 36.2173 64.8024 36.4567 64.8024 37.3865C64.8024 38.9049 63.4992 39.0304 62.1455 39.0304C61.5464 39.0304 60.6595 38.9677 59.9982 38.8578L59.9359 39.8544C60.6167 39.9446 61.5853 39.9564 62.1221 39.9564C63.9233 39.9564 65.8333 39.5287 65.8333 37.363C65.8333 35.9937 65.1097 35.4797 64.0127 34.852L61.5853 33.4238C61.0952 33.1414 60.5544 32.7725 60.5544 31.9055C60.5544 30.8893 61.6437 30.5205 62.8535 30.5205C63.6237 30.5205 64.464 30.6029 65.1292 30.7363L65.1914 29.7868C64.464 29.6809 63.3242 29.6338 62.8146 29.6338C61.5853 29.6338 60.7684 29.8692 60.1693 30.4616C59.7803 30.8304 59.5508 31.2973 59.5508 31.9329C59.5469 33.4435 60.5544 33.9378 61.3441 34.44Z" fill="black"/>
<path d="M44.4205 17.5731C43.4984 18.4951 42.9849 19.8605 42.9849 21.8967C42.9849 25.1179 45.1519 27.0011 47.9725 27.0011C49.6687 27.0011 51.0576 26.75 52.6994 25.7849L52.785 25.7496L53.034 26.6716H56.4809V13.2808C56.4809 9.65557 53.4736 8.58447 50.1356 8.58447C47.9725 8.58447 46.7586 8.76887 44.3738 9.31816L44.6422 13.324C46.9142 12.6531 48.381 12.3274 49.8438 12.3274C51.6762 12.3274 52.1897 12.916 52.1897 13.838V15.6859C49.2291 15.7565 46.1867 15.9056 44.4205 17.5731ZM52.1586 22.3362C50.7347 23.1915 50.4351 23.266 49.1513 23.266C47.8713 23.266 47.3928 22.5637 47.3928 21.3082C47.3928 20.5628 47.5756 20.0135 47.9452 19.6761C48.6766 18.9738 50.6919 18.8247 52.1936 18.7894L52.1586 22.3362Z" fill="black"/>
<path d="M65.0763 1.07495H60.7505V18.7893H65.0763V1.07495Z" fill="black"/>
<path d="M15.4582 29.6304C14.3884 29.6304 13.3537 29.6931 12.3228 29.9089L12.3851 30.8663C13.2214 30.6701 14.6646 30.521 15.4193 30.521C16.8781 30.521 17.6483 30.9369 17.6483 32.2081V34.1384C17.3177 34.1345 16.9792 34.1227 16.6291 34.1227C16.1195 34.1227 15.5827 34.1384 15.0109 34.2012C14.2134 34.2914 13.3109 34.4641 12.778 34.7662C11.8132 35.3076 11.5137 36.108 11.5137 37.2733C11.5137 38.8152 12.883 39.9569 14.1745 39.9569C15.68 39.9569 16.493 39.898 17.7378 39.1604H17.7573L17.8273 39.7686H18.5975V32.0119C18.5936 30.3248 17.2827 29.6304 15.4582 29.6304ZM17.6445 38.1443C16.6136 38.8701 15.5438 39.0937 14.2367 39.0937C13.4587 39.0937 12.4512 38.2894 12.4512 37.2733C12.4512 36.669 12.4979 35.951 13.2487 35.5273C13.6805 35.2566 14.3884 35.135 15.1781 35.0643C15.7616 34.9977 16.2674 34.978 16.7419 34.978C17.057 34.978 17.3605 34.9898 17.6678 34.9937L17.6445 38.1443Z" fill="black"/>
<path d="M50.035 29.6304C47.3467 29.6304 45.7827 30.9094 45.7827 34.825C45.7827 38.7289 47.3467 40.0001 50.0156 40.0001C52.6961 40.0001 54.264 38.7289 54.264 34.825C54.2601 30.9133 52.7117 29.6304 50.035 29.6304ZM50.035 39.1369C47.265 39.1369 46.7709 37.2693 46.7709 34.825C46.7709 32.3807 47.2689 30.4975 50.0156 30.4975C52.7856 30.4975 53.2797 32.3807 53.2797 34.825C53.2758 37.2733 52.805 39.1369 50.035 39.1369Z" fill="black"/>
<path d="M37.1464 38.5481L37.0997 38.5717L34.2716 29.8499H33.2407L36.5473 39.8939H37.6871L40.9937 29.8499H39.9589L37.1464 38.5481Z" fill="black"/>
<path d="M5.09694 1.07495H0.105957V5.80663H5.09694V1.07495Z" fill="black"/>
<path d="M4.8033 8.91357H0.473633V26.6319H4.8033V8.91357Z" fill="black"/>
<path d="M14.7001 26.9659C16.3496 26.9659 17.8163 26.6677 19.2869 25.7849H19.3219L19.5748 26.6677H23.0685V0H18.7384V8.98862H18.7072C17.7502 8.76891 17.1238 8.58451 15.8439 8.58451C10.3116 8.58451 8.39358 11.3937 8.39358 17.6084C8.3858 23.4112 9.93421 26.9659 14.7001 26.9659ZM15.84 12.351C17.1549 12.351 17.5673 12.4256 18.7384 12.8375V22.0812C18.0031 22.5951 17.0538 23.1562 15.4743 23.1562C13.7158 23.1562 12.7937 22.0066 12.7937 17.6084C12.7937 12.9827 13.6807 12.351 15.84 12.351Z" fill="black"/>
<path d="M6.41864 38.8738H1.07366L6.29027 30.713V29.8499H0.0855817V30.713H5.2594L0 38.9052V39.7683H6.41864V38.8738Z" fill="black"/>
<path d="M34.4786 26.9656C36.3889 26.9656 37.9995 26.7459 40.0576 26.2986L39.7969 22.3791C37.5949 22.8538 36.5367 23.1559 34.4786 23.1559C32.3505 23.1559 30.9928 22.0378 30.9928 18.6361H40.6023V16.1957C40.6023 11.6877 39.3534 8.58032 34.1518 8.58032C28.5729 8.58032 26.5576 11.6131 26.5576 17.8554C26.5537 24.1525 29.0164 26.9656 34.4786 26.9656ZM34.0001 12.2409C36.2371 12.2409 36.385 13.9123 36.4161 15.5327L31.1328 15.5758C31.3585 13.1354 31.981 12.2409 34.0001 12.2409Z" fill="black"/>
<path d="M25.5986 32.1449C26.0499 31.3877 27.0379 30.5442 28.0883 30.5442C28.4073 30.5442 28.6484 30.5638 28.9246 30.6266L28.9869 29.7006C28.7963 29.681 28.5784 29.6575 28.3684 29.6575C27.3375 29.6575 26.5828 29.7006 25.5558 30.8934H25.5325L25.2524 29.8693H24.6533V39.7721H25.5986V32.1449Z" fill="black"/>
</g>
<defs>
<clipPath id="clip0">
<rect width="66" height="40" fill="white"/>
</clipPath>
</defs>
</svg>
